<?xml version="1.0" encoding="utf-8"?>
<!-- Generator: Adobe Illustrator 25.2.1, SVG Export Plug-In . SVG Version: 6.00 Build 0)  -->
<svg version="1.1" id="Layer_1" xmlns="http://www.w3.org/2000/svg" xmlns:xlink="http://www.w3.org/1999/xlink" x="0px" y="0px"
	 width="29.3px" height="27.2px" viewBox="0 0 29.3 27.2" style="enable-background:new 0 0 29.3 27.2;" xml:space="preserve">
<style type="text/css">
	.st0{fill:none;stroke:#FFFFFF;stroke-width:1.5;}
	.st1{fill:none;stroke:#FFFFFF;stroke-width:1.5;stroke-linecap:square;}
	.st2{fill:none;stroke:#FFFFFF;stroke-width:1.5;stroke-linecap:round;stroke-linejoin:round;}
</style>
<g>
	<path class="st2" d="M15.2,1.3c4,3,13,9.8,13,9.8v15.1h-27V11l12.6-9.6c0.2-0.2,0.5-0.3,0.7-0.3C14.7,1.1,15,1.2,15.2,1.3L15.2,1.3
		z"/>
	<path class="st2" d="M1.1,11l10.1,8.3 M1.3,25.3L13.6,18c0.3-0.2,0.7-0.4,1.1-0.4c0.4,0,0.8,0.1,1.1,0.3l12.5,7.3 M28.2,11.1
		l-10.3,8.2 M1.1,11.1"/>
	<line class="st2" x1="1.1" y1="11.1" x2="28.2" y2="11.1"/>
</g>
</svg>
