<?xml version="1.0" encoding="utf-8"?>
<!-- Generator: Adobe Illustrator 25.2.1, SVG Export Plug-In . SVG Version: 6.00 Build 0)  -->
<svg version="1.1" id="Layer_1" xmlns="http://www.w3.org/2000/svg" xmlns:xlink="http://www.w3.org/1999/xlink" x="0px" y="0px"
	 width="28.5px" height="28.5px" viewBox="0 0 28.5 28.5" style="enable-background:new 0 0 28.5 28.5;" xml:space="preserve">
<style type="text/css">
	.st0{fill:none;stroke:#FFFFFF;stroke-width:1.5;}
	.st1{fill:none;stroke:#FFFFFF;stroke-width:1.5;stroke-linecap:square;}
	.st2{fill:none;stroke:#FFFFFF;stroke-width:1.5;stroke-linecap:round;stroke-linejoin:round;}
</style>
<path class="st0" d="M9.1,1.2H4.9c-1,0-1.9,0.4-2.6,1.1C1.6,3,1.2,3.9,1.2,4.9v3.7c0,10.3,8.3,18.6,18.6,18.6h3.7
	c1,0,1.9-0.4,2.6-1.1s1.1-1.6,1.1-2.6V21c0-0.3-0.1-0.7-0.3-1c-0.2-0.3-0.4-0.5-0.8-0.7l-4.5-2.2c-0.2-0.1-0.5-0.2-0.8-0.2
	c-0.3,0-0.5,0-0.8,0.1c-0.2,0.1-0.5,0.3-0.6,0.5c-0.2,0.2-0.3,0.4-0.4,0.7l-0.6,1.7c-0.2,0.5-0.5,1-1,1.2c-0.5,0.3-1,0.4-1.6,0.3
	c-2.2-0.4-4.2-1.5-5.7-3.1c-1.6-1.6-2.6-3.6-3.1-5.7c-0.1-0.5,0-1.1,0.3-1.6c0.3-0.5,0.7-0.8,1.2-1l2.1-0.7c0.4-0.1,0.8-0.5,1-0.9
	C12,7.9,12.1,7.4,12,7l-1.1-4.4c-0.1-0.4-0.3-0.8-0.7-1C9.9,1.4,9.5,1.2,9.1,1.2L9.1,1.2z"/>
</svg>
