<?xml version="1.0" encoding="utf-8"?>
<!-- Generator: Adobe Illustrator 25.2.1, SVG Export Plug-In . SVG Version: 6.00 Build 0)  -->
<svg version="1.1" id="Layer_1" xmlns="http://www.w3.org/2000/svg" xmlns:xlink="http://www.w3.org/1999/xlink" x="0px" y="0px"
	 width="28.1px" height="32.5px" viewBox="0 0 28.1 32.5" style="enable-background:new 0 0 28.1 32.5;" xml:space="preserve">
<style type="text/css">
	.st0{fill:none;stroke:#FFFFFF;stroke-width:1.5;}
	.st1{fill:none;stroke:#FFFFFF;stroke-width:1.5;stroke-linecap:square;}
	.st2{fill:none;stroke:#FFFFFF;stroke-width:1.5;stroke-linecap:round;stroke-linejoin:round;}
</style>
<g>
	<path class="st1" d="M14.1,18.4c1.1,0,2.2-0.5,3.1-1.3c0.8-0.8,1.3-1.9,1.3-3.1c0-1.1-0.5-2.2-1.3-3.1c-0.8-0.8-1.9-1.3-3.1-1.3
		S11.8,10.2,11,11c-0.8,0.8-1.3,1.9-1.3,3.1c0,1.1,0.5,2.2,1.3,3.1C11.8,18,12.9,18.4,14.1,18.4z"/>
	<path class="st1" d="M27,14.1c0,10.8-10.8,17.3-13,17.3s-13-6.5-13-17.3c0-3.4,1.4-6.7,3.8-9.2s5.7-3.8,9.2-3.8
		C21.2,1.1,27,6.9,27,14.1z"/>
</g>
</svg>
