<?xml version="1.0" encoding="utf-8"?>
<!-- Generator: Adobe Illustrator 25.2.1, SVG Export Plug-In . SVG Version: 6.00 Build 0)  -->
<svg version="1.1" id="Layer_1" xmlns="http://www.w3.org/2000/svg" xmlns:xlink="http://www.w3.org/1999/xlink" x="0px" y="0px"
	 width="22px" height="20px" viewBox="0 0 22 20" style="enable-background:new 0 0 22 20;" xml:space="preserve">
<style type="text/css">
	.st0{fill:none;stroke:#D4DBF9;stroke-miterlimit:10;}
	.st1{fill:none;stroke:#2A3042;stroke-miterlimit:10;}
	.st2{fill:#FFFFFF;}
	.st3{fill:#2A3042;}
	.st4{fill:none;stroke:#7382C3;stroke-width:1.5;stroke-miterlimit:10;}
	.st5{fill:#DA9FFD;}
	.st6{fill:#E6E9EE;}
	.st7{fill:#7382C3;}
	.st8{fill:#FFFEFC;}
	.st9{fill:#324A5E;}
	.st10{fill:#FB6969;}
	.st11{fill:none;stroke:#FFFFFF;stroke-miterlimit:10;}
	.st12{fill:#39B54A;}
	.st13{fill:none;stroke:#7E4DFE;stroke-width:1.5;stroke-miterlimit:10;}
	.st14{fill:#FF8FA3;}
	.st15{clip-path:url(#SVGID_2_);}
	.st16{fill:#F97893;}
	.st17{opacity:0.4;fill:#F9ACBC;}
	.st18{opacity:0.3;fill:none;stroke:#FFFFFF;stroke-miterlimit:10;}
	.st19{fill:#73D4DC;}
	.st20{clip-path:url(#SVGID_4_);}
	.st21{fill:#64C4CF;}
	.st22{fill:#73D3DE;}
	.st23{fill:#B9E5FD;}
	.st24{fill:#AF8EFF;}
	.st25{clip-path:url(#SVGID_6_);}
	.st26{fill:#9879F7;}
	.st27{fill:#C0AFF9;}
	.st28{fill:none;stroke:#9879F7;stroke-miterlimit:10;}
	.st29{fill:none;stroke:#64C4CF;stroke-miterlimit:10;}
	.st30{fill:none;stroke:#F97893;stroke-miterlimit:10;}
	.st31{fill:url(#SVGID_7_);}
	.st32{fill:none;stroke:#F6F6F6;stroke-miterlimit:10;}
	.st33{fill:url(#SVGID_8_);}
	.st34{fill:none;stroke:#172B4C;stroke-miterlimit:10;}
	.st35{fill:#F1F2F7;}
	.st36{fill:#7E4DFE;}
	.st37{opacity:0.9;}
	.st38{fill:none;stroke:#6E6B7B;}
	.st39{fill:none;stroke:#172B4C;stroke-width:1.5;stroke-linecap:round;stroke-linejoin:round;}
	.st40{clip-path:url(#SVGID_10_);}
	.st41{fill:#8565FC;}
	.st42{fill:none;stroke:#8977F2;stroke-miterlimit:10;}
	.st43{fill:#6D48F7;}
</style>
<path class="st38" d="M5.8,1v2.2 M16.2,1v2.2 M2,16.8V5.5c0-0.6,0.2-1.2,0.7-1.6s1-0.7,1.6-0.7h13.5c0.6,0,1.2,0.2,1.6,0.7
	c0.4,0.4,0.7,1,0.7,1.6v11.2 M2,16.8c0,0.6,0.2,1.2,0.7,1.6c0.4,0.4,1,0.7,1.6,0.7h13.5c0.6,0,1.2-0.2,1.6-0.7
	c0.4-0.4,0.7-1,0.7-1.6 M2,16.8V9.2c0-0.6,0.2-1.2,0.7-1.6C3.1,7.2,3.7,7,4.2,7h13.5c0.6,0,1.2,0.2,1.6,0.7c0.4,0.4,0.7,1,0.7,1.6
	v7.5 M11,10.8L11,10.8L11,10.8L11,10.8L11,10.8z M11,13L11,13L11,13L11,13L11,13z M11,15.2L11,15.2L11,15.2L11,15.2L11,15.2z
	 M8.8,13L8.8,13L8.8,13L8.8,13L8.8,13z M8.8,15.2L8.8,15.2L8.8,15.2L8.8,15.2L8.8,15.2z M6.5,13L6.5,13L6.5,13L6.5,13L6.5,13z
	 M6.5,15.2L6.5,15.2L6.5,15.2L6.5,15.2L6.5,15.2z M13.2,10.8L13.2,10.8L13.2,10.8L13.2,10.8L13.2,10.8z M13.2,13L13.2,13L13.2,13
	L13.2,13L13.2,13z M13.2,15.2L13.2,15.2L13.2,15.2L13.2,15.2L13.2,15.2z M15.5,10.8L15.5,10.8L15.5,10.8L15.5,10.8L15.5,10.8z
	 M15.5,13L15.5,13L15.5,13L15.5,13L15.5,13z"/>
</svg>
