<?xml version="1.0" encoding="utf-8"?>
<!-- Generator: Adobe Illustrator 25.2.1, SVG Export Plug-In . SVG Version: 6.00 Build 0)  -->
<svg version="1.1" id="Layer_1" xmlns="http://www.w3.org/2000/svg" xmlns:xlink="http://www.w3.org/1999/xlink" x="0px" y="0px"
	 width="57px" height="57px" viewBox="0 0 57 57" style="enable-background:new 0 0 57 57;" xml:space="preserve">
<style type="text/css">
	.st0{fill:#C5BFDF;}
	.st1{fill:#FFFFFF;stroke:#6F69AF;stroke-width:1.5;stroke-miterlimit:10;}
	.st2{fill:none;stroke:#6F69AF;stroke-width:1.5;stroke-miterlimit:10;}
</style>
<g>
	<g>
		<path class="st0" d="M28.6,55.4c13.1,0,23.7-10.6,23.7-23.7C52.3,18.6,41.7,8,28.6,8C15.5,8,4.9,18.6,4.9,31.7
			C4.9,44.7,15.5,55.4,28.6,55.4z"/>
		<path class="st1" d="M28.8,49.9c10.1,0,18.3-8.2,18.3-18.3c0-10.1-8.2-18.3-18.3-18.3c-10.1,0-18.3,8.2-18.3,18.3
			C10.5,41.7,18.7,49.9,28.8,49.9z"/>
		<path class="st2" d="M38.3,25.1L24.8,38.7l-6.4-6.4"/>
		<path class="st2" d="M28.6,55.4c13.1,0,23.7-10.6,23.7-23.7C52.3,18.6,41.7,8,28.6,8C15.5,8,4.9,18.6,4.9,31.7
			C4.9,44.7,15.5,55.4,28.6,55.4z"/>
		<path class="st0" d="M51.3,16l3.7-4.2L42.8,1.6l-3.6,4.3L51.3,16z M5.7,16L2,11.9L14.2,1.6l3.6,4.3L5.7,16z"/>
		<path class="st2" d="M51.3,16l3.7-4.2L42.8,1.6l-3.6,4.3L51.3,16z M5.7,16L2,11.9L14.2,1.6l3.6,4.3L5.7,16z"/>
	</g>
</g>
</svg>
