<?xml version="1.0" encoding="utf-8"?>
<!-- Generator: Adobe Illustrator 25.2.1, SVG Export Plug-In . SVG Version: 6.00 Build 0)  -->
<svg version="1.1" id="Layer_1" xmlns="http://www.w3.org/2000/svg" xmlns:xlink="http://www.w3.org/1999/xlink" x="0px" y="0px"
	 width="46.1px" height="52.7px" viewBox="0 0 46.1 52.7" style="enable-background:new 0 0 46.1 52.7;" xml:space="preserve">
<style type="text/css">
	.st0{fill:#C5BFDF;}
	.st1{fill:#FFFFFF;stroke:#6F69AF;stroke-width:1.5;stroke-miterlimit:10;}
	.st2{fill:none;stroke:#6F69AF;stroke-width:1.5;stroke-miterlimit:10;}
</style>
<g>
	<path class="st0" d="M44.6,22.8c0,17.9-17.9,28.7-21.5,28.7S1.5,40.7,1.5,22.8c0-5.7,2.3-11.2,6.3-15.2s9.5-6.3,15.2-6.3
		C35,1.2,44.6,10.9,44.6,22.8z"/>
	<path class="st1" d="M23.1,29.9c1.9,0,3.7-0.8,5.1-2.1c1.3-1.3,2.1-3.2,2.1-5.1c0-1.9-0.8-3.7-2.1-5.1c-1.3-1.3-3.2-2.1-5.1-2.1
		c-1.9,0-3.7,0.8-5.1,2.1c-1.3,1.3-2.1,3.2-2.1,5.1c0,1.9,0.8,3.7,2.1,5.1C19.3,29.2,21.2,29.9,23.1,29.9z"/>
	<path class="st2" d="M44.6,22.8c0,17.9-17.9,28.7-21.5,28.7S1.5,40.7,1.5,22.8c0-5.7,2.3-11.2,6.3-15.2s9.5-6.3,15.2-6.3
		C35,1.2,44.6,10.9,44.6,22.8z"/>
</g>
</svg>
