<?xml version="1.0" encoding="utf-8"?>
<!-- Generator: Adobe Illustrator 25.2.1, SVG Export Plug-In . SVG Version: 6.00 Build 0)  -->
<svg version="1.1" id="Layer_1" xmlns="http://www.w3.org/2000/svg" xmlns:xlink="http://www.w3.org/1999/xlink" x="0px" y="0px"
	 width="1920px" height="1072px" viewBox="0 0 1920 1072" style="enable-background:new 0 0 1920 1072;" xml:space="preserve">
<style type="text/css">
	.st0{fill:url(#SVGID_1_);}
</style>
<linearGradient id="SVGID_1_" gradientUnits="userSpaceOnUse" x1="0" y1="536.0029" x2="1920" y2="536.0029">
	<stop  offset="0" style="stop-color:#F79357"/>
	<stop  offset="1" style="stop-color:#F26856"/>
</linearGradient>
<path class="st0" d="M0,30.7c0,0,152.4-46.8,292.8,0s189.8,30.3,338.6,0s287.9-42.7,428.2,4.2s136,85.4,315.9,76.9
	S1663.6-37.9,1920,58.4c0,368.1,0,955,0,955s-126.7-48.4-245.6-24.2c0,0-97.6,11.4-170.4,49.9c-72.8,38.5-235.6,34.3-398.3-25.7
	s-282.7-68.5-381.2-47.1c-98.5,21.4-205.6,106.1-299.8,101.8S166.5,982.6,0,1038.2C0,828.1,0,30.7,0,30.7z"/>
</svg>
