<?xml version="1.0" encoding="utf-8"?>
<!-- Generator: Adobe Illustrator 25.2.1, SVG Export Plug-In . SVG Version: 6.00 Build 0)  -->
<svg version="1.1" id="Layer_1" xmlns="http://www.w3.org/2000/svg" xmlns:xlink="http://www.w3.org/1999/xlink" x="0px" y="0px"
	 width="88.7px" height="17.6px" viewBox="0 0 88.7 17.6" style="enable-background:new 0 0 88.7 17.6;" xml:space="preserve">
<style type="text/css">
	.st0{fill:#FFBC01;}
</style>
<g>
	<path class="st0" d="M16.5,7c0,0.1-0.1,0.3-0.2,0.5l-3.5,3.6l0.8,5c0,0,0,0.1,0,0.2c0,0.1,0,0.3-0.1,0.4s-0.2,0.1-0.3,0.1
		c-0.1,0-0.2,0-0.4-0.1l-4.3-2.4l-4.3,2.4c-0.1,0.1-0.3,0.1-0.4,0.1c-0.1,0-0.2,0-0.3-0.1c-0.1-0.1-0.1-0.2-0.1-0.4c0,0,0-0.1,0-0.2
		l0.8-5L0.8,7.5C0.6,7.3,0.5,7.2,0.5,7c0-0.2,0.2-0.4,0.5-0.5l4.8-0.7l2.2-4.6C8.2,1,8.3,0.8,8.5,0.8C8.7,0.8,8.9,1,9,1.2l2.2,4.6
		L16,6.6C16.3,6.6,16.5,6.8,16.5,7z"/>
	<path class="st0" d="M34.4,7c0,0.1-0.1,0.3-0.2,0.5l-3.5,3.6l0.8,5c0,0,0,0.1,0,0.2c0,0.1,0,0.3-0.1,0.4c-0.1,0.1-0.2,0.1-0.3,0.1
		c-0.1,0-0.2,0-0.4-0.1l-4.3-2.4l-4.3,2.4c-0.1,0.1-0.3,0.1-0.4,0.1c-0.1,0-0.2,0-0.3-0.1c-0.1-0.1-0.1-0.2-0.1-0.4c0,0,0-0.1,0-0.2
		l0.8-5l-3.5-3.6c-0.2-0.2-0.2-0.3-0.2-0.5c0-0.2,0.2-0.4,0.5-0.5l4.8-0.7L26,1.2c0.1-0.3,0.3-0.4,0.5-0.4s0.3,0.1,0.5,0.4l2.2,4.6
		l4.8,0.7C34.3,6.6,34.4,6.8,34.4,7z"/>
	<path class="st0" d="M52.4,7c0,0.1-0.1,0.3-0.2,0.5l-3.5,3.6l0.8,5c0,0,0,0.1,0,0.2c0,0.1,0,0.3-0.1,0.4c-0.1,0.1-0.2,0.1-0.3,0.1
		c-0.1,0-0.2,0-0.4-0.1l-4.3-2.4l-4.3,2.4c-0.1,0.1-0.3,0.1-0.4,0.1c-0.1,0-0.2,0-0.3-0.1s-0.1-0.2-0.1-0.4c0,0,0-0.1,0-0.2l0.8-5
		l-3.5-3.6c-0.2-0.2-0.2-0.3-0.2-0.5c0-0.2,0.2-0.4,0.5-0.5l4.8-0.7l2.2-4.6C44,1,44.2,0.8,44.4,0.8s0.3,0.1,0.5,0.4L47,5.8l4.8,0.7
		C52.2,6.6,52.4,6.8,52.4,7z"/>
	<path class="st0" d="M70.3,7c0,0.1-0.1,0.3-0.2,0.5l-3.5,3.6l0.8,5c0,0,0,0.1,0,0.2c0,0.1,0,0.3-0.1,0.4s-0.2,0.1-0.3,0.1
		c-0.1,0-0.2,0-0.4-0.1l-4.3-2.4L58,16.7c-0.1,0.1-0.3,0.1-0.4,0.1c-0.1,0-0.2,0-0.3-0.1c-0.1-0.1-0.1-0.2-0.1-0.4c0,0,0-0.1,0-0.2
		l0.8-5l-3.5-3.6c-0.2-0.2-0.2-0.3-0.2-0.5c0-0.2,0.2-0.4,0.5-0.5l4.8-0.7l2.2-4.6c0.1-0.3,0.3-0.4,0.5-0.4s0.3,0.1,0.5,0.4l2.2,4.6
		l4.8,0.7C70.1,6.6,70.3,6.8,70.3,7z"/>
	<path class="st0" d="M88.2,7c0,0.1-0.1,0.3-0.2,0.5l-3.5,3.6l0.8,5c0,0,0,0.1,0,0.2c0,0.1,0,0.3-0.1,0.4s-0.2,0.1-0.3,0.1
		c-0.1,0-0.2,0-0.4-0.1l-4.3-2.4l-4.3,2.4c-0.1,0.1-0.3,0.1-0.4,0.1c-0.1,0-0.2,0-0.3-0.1s-0.1-0.2-0.1-0.4c0,0,0-0.1,0-0.2l0.8-5
		l-3.5-3.6c-0.2-0.2-0.2-0.3-0.2-0.5c0-0.2,0.2-0.4,0.5-0.5l4.8-0.7l2.2-4.6C79.9,1,80,0.8,80.2,0.8s0.3,0.1,0.5,0.4l2.2,4.6
		l4.8,0.7C88,6.6,88.2,6.8,88.2,7z"/>
</g>
</svg>
